<?xml version="1.0" encoding="UTF-8"?>
<svg width="16px" height="16px" viewBox="0 0 16 16" version="1.1" xmlns="http://www.w3.org/2000/svg" xmlns:xlink="http://www.w3.org/1999/xlink">
    <!-- Generator: Sketch 52.6 (67491) - http://www.bohemiancoding.com/sketch -->
    <title>Artboard</title>
    <desc>Created with Sketch.</desc>
    <g id="Artboard" stroke="none" stroke-width="1" fill="none" fill-rule="evenodd">
        <g id="Group-2" transform="translate(0.000000, 2.000000)" fill="#000000">
            <g id="Group">
                <path d="M15.6612238,10.261212 C15.4981106,10.261212 15.365729,10.389239 15.365729,10.5469866 L15.365729,11.4043103 L11.5333586,11.4043103 L11.5258727,10.8624817 C13.1743396,9.74453163 14.1561703,7.9258623 14.1561703,5.97459357 C14.1561703,2.68056542 11.3844292,-6.65754233e-15 7.97835928,-6.65754233e-15 C4.57228935,-6.65754233e-15 1.80054824,2.68056542 1.80054824,5.97459357 C1.80054824,7.91671751 2.78119695,9.7430075 4.42335998,10.8609576 C4.42611793,10.8624817 4.42769391,10.8624817 4.43084585,10.8640059 L4.42335998,11.4043103 L0.590989576,11.4043103 L0.590989576,10.5469866 C0.590989576,10.389239 0.458607911,10.261212 0.295494788,10.261212 C0.132381665,10.261212 0,10.389239 0,10.5469866 L0,11.9758594 L5.0064697,11.9758594 L5.0234114,10.7359789 C5.02498737,10.6140484 4.94658275,10.5111695 4.83705268,10.4681128 C4.81735303,10.4399164 4.79410744,10.4128631 4.76337598,10.3922873 C3.27802218,9.38140741 2.39153782,7.73077353 2.39153782,5.97306944 C2.39153782,2.99339331 4.89733362,0.570024999 7.97835928,0.570024999 C11.0593849,0.570024999 13.5651807,2.99339331 13.5651807,5.97306944 C13.5651807,7.771163 12.6463889,9.44389679 11.1058761,10.4502043 C11.0763266,10.4681128 11.055051,10.493261 11.0349574,10.5187902 C10.9719185,10.5721348 10.9301552,10.6479603 10.9317312,10.7344547 L10.9486729,11.9743353 L15.9567186,11.9758594 L15.9567186,10.5469866 C15.9567186,10.389239 15.8243369,10.261212 15.6612238,10.261212 Z" id="Page-1"></path>
                <g id="Page-1" transform="translate(3.537415, 1.157895)">
                    <path d="M8.17601522,5.23004709 C8.057094,5.0872687 7.92481084,4.9444903 7.78213507,4.80228532 C7.92481084,4.66008033 8.05650013,4.51672853 8.17601522,4.37452355 C8.83416475,3.58666205 9.03830542,2.88882548 8.75132075,2.40902701 C8.53322428,2.04448338 8.06050871,1.85181856 7.38498867,1.85181856 C7.00847904,1.85181856 6.5788186,1.91231302 6.1188711,2.02427078 C5.75468414,0.801336565 5.15220934,0.0150519391 4.45798259,0.0150519391 C3.76316197,0.0150519391 3.16113257,0.801336565 2.79694561,2.02427078 C2.33655272,1.91231302 1.90733768,1.85181856 1.53038264,1.85181856 C0.854120271,1.85181856 0.382147036,2.04448338 0.164050564,2.40902701 C-0.123082571,2.88882548 0.0816519657,3.58709211 0.739356097,4.37452355 C0.858871181,4.51730194 0.991005871,4.66065374 1.13427551,4.80400554 C0.219725293,5.71945014 -0.183359744,6.61539889 0.163456701,7.19611704 C0.381553172,7.56066066 0.853526407,7.75332548 1.52978878,7.75332548 C1.90614995,7.75332548 2.33595886,7.69283102 2.79635175,7.58087327 C3.16009331,8.80380748 3.76256811,9.58994875 4.45679486,9.58994875 C5.15161548,9.58994875 5.75349641,8.80380748 6.11768337,7.58087327 C6.57822473,7.69283102 7.00803364,7.75332548 7.38439481,7.75332548 C8.05991485,7.75332548 8.53263042,7.56066066 8.75072689,7.19611704 C9.03830542,6.71631856 8.83416475,6.01790859 8.17601522,5.23004709 Z M7.38498867,2.20790443 C7.75897438,2.20790443 8.24445802,2.2734162 8.43167357,2.58706994 C8.63418112,2.92523684 8.43583062,3.49534695 7.88888208,4.15046468 C7.77693876,4.28435526 7.6534151,4.41810249 7.51949882,4.55256648 C7.19881238,4.26084557 6.83284383,3.97471537 6.43317351,3.70134349 C6.38744599,3.2242687 6.3120253,2.77629432 6.21166232,2.36817175 C6.63909577,2.26395499 7.03757836,2.20790443 7.38498867,2.20790443 Z M5.28671949,6.18878393 C5.0111667,6.34217036 4.73338692,6.48279848 4.45798259,6.60980817 C4.18183593,6.48222507 3.90465002,6.34217036 3.62865183,6.18821053 C3.35250517,6.03425069 3.0868996,5.87240651 2.83465596,5.70554501 C2.81208914,5.41712119 2.79991493,5.11593906 2.79991493,4.80171191 C2.79991493,4.48705471 2.812683,4.18515582 2.83465596,3.89687535 C3.08229715,3.73388435 3.346715,3.57261357 3.62865183,3.4152133 C3.90465002,3.26125346 4.18183593,3.12119875 4.45798259,2.99418906 C4.73398078,3.12119875 5.0111667,3.26182687 5.28731335,3.4152133 C5.56331154,3.56917313 5.82891711,3.73101731 6.08175462,3.89787881 C6.10446991,4.18630263 6.11664411,4.48762812 6.11664411,4.80171191 C6.11664411,5.11593906 6.10446991,5.41712119 6.08175462,5.70554501 C5.82832325,5.87355332 5.56271768,6.0348241 5.28671949,6.18878393 Z M6.03543324,6.16355402 C5.99193272,6.51519598 5.93269481,6.84275485 5.86024343,7.14293352 C5.54772262,7.05118837 5.22287913,6.93693698 4.89239394,6.80032271 C5.08599353,6.70499377 5.27914772,6.60479086 5.47111419,6.49727701 C5.66426838,6.38976316 5.85267167,6.27837881 6.03543324,6.16355402 Z M4.02357124,6.80075277 C3.69293758,6.93693698 3.36824256,7.05161842 3.05557329,7.14350693 C2.9831219,6.84332825 2.92403246,6.51576939 2.88053194,6.16412742 C3.06314505,6.27837881 3.25110293,6.39033657 3.44425713,6.49785042 C3.63622359,6.60479086 3.82982318,6.70556717 4.02357124,6.80075277 Z M2.44790218,5.4379072 C2.16136291,5.23004709 1.89575733,5.0161662 1.65687563,4.79941828 C1.88996716,4.58897784 2.15379114,4.37552701 2.44790218,4.16336634 C2.43632183,4.37165651 2.4299378,4.58439058 2.4299378,4.80171191 C2.4303832,5.01845983 2.43676723,5.23004709 2.44790218,5.4379072 Z M2.87993807,3.44101662 C2.9234386,3.08937465 2.98252804,2.76181579 3.05512789,2.46163712 C3.3676487,2.55295222 3.69234372,2.66763366 4.02297737,2.80381787 C3.82922932,2.89900346 3.63622359,2.99977978 3.44366326,3.10672022 C3.24932134,3.21538089 3.06136346,3.32733864 2.87993807,3.44101662 Z M4.89239394,2.80381787 C5.22287913,2.66763366 5.54772262,2.55295222 5.86024343,2.46106371 C5.93210095,2.76124238 5.99193272,3.08880125 6.03543324,3.44044321 C5.85267167,3.32619183 5.66486225,3.21423407 5.47170805,3.10672022 C5.27914772,2.99977978 5.08539967,2.89900346 4.89239394,2.80381787 Z M6.468063,4.16666343 C6.75341455,4.37395014 7.01783239,4.58668421 7.25612023,4.80228532 C7.01783239,5.01788643 6.75341455,5.23119391 6.468063,5.4379072 C6.47904948,5.23004709 6.48543352,5.01845983 6.48543352,4.80228532 C6.48543352,4.5861108 6.47904948,4.37452355 6.468063,4.16666343 Z M4.45798259,0.371854571 C4.94109077,0.371854571 5.44498418,1.02080817 5.76863994,2.11773615 C5.34699666,2.24044529 4.90501355,2.40343629 4.45798259,2.60154848 C4.01080317,2.40343629 3.56882005,2.24044529 3.14732524,2.11773615 C3.47083253,1.02080817 3.97428055,0.371854571 4.45798259,0.371854571 Z M0.483549275,2.58706994 C0.670913296,2.27398961 1.15624847,2.20790443 1.53038264,2.20790443 C1.87779295,2.20790443 2.27612708,2.26395499 2.70356053,2.36817175 C2.60334602,2.77572091 2.52851918,3.22369529 2.48204934,3.70134349 C2.07673732,3.97858587 1.71255036,4.26528947 1.39646636,4.55313989 C1.26180775,4.4186759 1.13828409,4.28435526 1.02634077,4.15046468 C0.479540695,3.49534695 0.281784058,2.92523684 0.483549275,2.58706994 Z M1.53038264,7.3966662 C1.15624847,7.3966662 0.670913296,7.33115443 0.483549275,7.0180741 C0.242292117,6.61382202 0.57233191,5.86896607 1.39349704,5.04985388 C1.71537121,5.3421482 2.08193363,5.62985526 2.48264321,5.90380055 C2.52851918,6.38087535 2.60379142,6.82884972 2.7041544,7.2369723 C2.27612708,7.34004224 1.87779295,7.3966662 1.53038264,7.3966662 Z M4.45798259,9.23271607 C3.97487441,9.23271607 3.47083253,8.58376247 3.14732524,7.48726454 C3.56882005,7.36469875 4.01080317,7.20170776 4.45798259,7.00345222 C4.90501355,7.20170776 5.34699666,7.36469875 5.76863994,7.48683449 C5.44439032,8.58376247 4.94109077,9.23271607 4.45798259,9.23271607 Z M8.43167357,7.01750069 C8.24445802,7.33058102 7.75897438,7.3966662 7.38498867,7.3966662 C7.03757836,7.3966662 6.63909577,7.34061565 6.21166232,7.23639889 C6.3120253,6.82827632 6.38685213,6.38030194 6.43317351,5.90322715 C6.83284383,5.62985526 7.19881238,5.34315166 7.51949882,5.05200416 C7.6534151,5.18589474 7.77693876,5.32021537 7.88888208,5.45410596 C8.43642448,6.10922368 8.63418112,6.6793338 8.43167357,7.01750069 Z" id="Fill-1"></path>
                    <path d="M4.45798259,3.44775416 C3.68432656,3.44775416 3.05512789,4.05527909 3.05512789,4.80228532 C3.05512789,5.54929155 3.68432656,6.15738989 4.45798259,6.15738989 C5.23163862,6.15738989 5.86083729,5.54986496 5.86083729,4.80228532 C5.86083729,4.05527909 5.23163862,3.44775416 4.45798259,3.44775416 Z M4.45798259,5.80073061 C3.88787337,5.80073061 3.42391729,5.35275623 3.42391729,4.80228532 C3.42391729,4.2518144 3.88787337,3.80384003 4.45798259,3.80384003 C5.02809181,3.80384003 5.49204789,4.2518144 5.49204789,4.80228532 C5.49145402,5.35275623 5.02809181,5.80073061 4.45798259,5.80073061 Z" id="Fill-2"></path>
                </g>
            </g>
        </g>
    </g>
</svg>